<?xml version="1.0" encoding="UTF-8" standalone="no"?><svg xmlns="http://www.w3.org/2000/svg" xmlns:xlink="http://www.w3.org/1999/xlink" contentStyleType="text/css" height="799px" preserveAspectRatio="none" style="width:1666px;height:799px;background:#FFFFFF;" version="1.1" viewBox="0 0 1666 799" width="1666px" zoomAndPan="magnify"><defs/><g><!--MD5=[55f362e11d89457893251133111a5e15]
cluster Algorithm--><g id="cluster_Algorithm"><path d="M8.5,6 L85.5,6 A3.75,3.75 0 0 1 88,8.5 L95,28.2969 L851.5,28.2969 A2.5,2.5 0 0 1 854,30.7969 L854,594 A2.5,2.5 0 0 1 851.5,596.5 L8.5,596.5 A2.5,2.5 0 0 1 6,594 L6,8.5 A2.5,2.5 0 0 1 8.5,6 " fill="none" style="stroke:#000000;stroke-width:1.5;"/><line style="stroke:#000000;stroke-width:1.5;" x1="6" x2="95" y1="28.2969" y2="28.2969"/><text fill="#000000" font-family="sans-serif" font-size="14" font-weight="bold" lengthAdjust="spacing" textLength="76" x="10" y="20.9951">Algorithm</text></g><!--MD5=[cd7daaa495df6cd725d2b94f1df3def7]
cluster DataStructures--><g id="cluster_DataStructures"><path d="M880.5,153.5 L1000.5,153.5 A3.75,3.75 0 0 1 1003,156 L1010,175.7969 L1473.5,175.7969 A2.5,2.5 0 0 1 1476,178.2969 L1476,651 A2.5,2.5 0 0 1 1473.5,653.5 L880.5,653.5 A2.5,2.5 0 0 1 878,651 L878,156 A2.5,2.5 0 0 1 880.5,153.5 " fill="none" style="stroke:#000000;stroke-width:1.5;"/><line style="stroke:#000000;stroke-width:1.5;" x1="878" x2="1010" y1="175.7969" y2="175.7969"/><text fill="#000000" font-family="sans-serif" font-size="14" font-weight="bold" lengthAdjust="spacing" textLength="119" x="882" y="168.4951">DataStructures</text></g><!--MD5=[0c9cdfe0c8aeaf0648fc945997479c55]
cluster Implementation--><g id="cluster_Implementation"><path d="M1205.5,14.5 L1327.5,14.5 A3.75,3.75 0 0 1 1330,17 L1337,36.7969 L1649.5,36.7969 A2.5,2.5 0 0 1 1652,39.2969 L1652,127 A2.5,2.5 0 0 1 1649.5,129.5 L1205.5,129.5 A2.5,2.5 0 0 1 1203,127 L1203,17 A2.5,2.5 0 0 1 1205.5,14.5 " fill="none" style="stroke:#000000;stroke-width:1.5;"/><line style="stroke:#000000;stroke-width:1.5;" x1="1203" x2="1337" y1="36.7969" y2="36.7969"/><text fill="#000000" font-family="sans-serif" font-size="14" font-weight="bold" lengthAdjust="spacing" textLength="121" x="1207" y="29.4951">Implementation</text></g><!--MD5=[6c8390b4b46993c0604703f5cdd18359]
cluster Serialization--><g id="cluster_Serialization"><path d="M1077.5,677.5 L1174.5,677.5 A3.75,3.75 0 0 1 1177,680 L1184,699.7969 L1656.5,699.7969 A2.5,2.5 0 0 1 1659,702.2969 L1659,790 A2.5,2.5 0 0 1 1656.5,792.5 L1077.5,792.5 A2.5,2.5 0 0 1 1075,790 L1075,680 A2.5,2.5 0 0 1 1077.5,677.5 " fill="none" style="stroke:#000000;stroke-width:1.5;"/><line style="stroke:#000000;stroke-width:1.5;" x1="1075" x2="1184" y1="699.7969" y2="699.7969"/><text fill="#000000" font-family="sans-serif" font-size="14" font-weight="bold" lengthAdjust="spacing" textLength="96" x="1079" y="692.4951">Serialization</text></g><!--MD5=[e1b53bd598540db762b8a51666b9f16c]
class DijkstraResult--><g id="elem_DijkstraResult"><rect codeLine="2" fill="#F1F1F1" height="96.8906" id="DijkstraResult" rx="2.5" ry="2.5" style="stroke:#181818;stroke-width:0.5;" width="604" x="128" y="253.5"/><ellipse cx="378.25" cy="269.5" fill="#ADD1B2" rx="11" ry="11" style="stroke:#181818;stroke-width:1.0;"/><path d="M381.2188,275.1406 Q380.6406,275.4375 380,275.5781 Q379.3594,275.7344 378.6563,275.7344 Q376.1563,275.7344 374.8281,274.0938 Q373.5156,272.4375 373.5156,269.3125 Q373.5156,266.1875 374.8281,264.5313 Q376.1563,262.875 378.6563,262.875 Q379.3594,262.875 380,263.0313 Q380.6563,263.1875 381.2188,263.4844 L381.2188,266.2031 Q380.5938,265.625 380,265.3594 Q379.4063,265.0781 378.7813,265.0781 Q377.4375,265.0781 376.75,266.1563 Q376.0625,267.2188 376.0625,269.3125 Q376.0625,271.4063 376.75,272.4844 Q377.4375,273.5469 378.7813,273.5469 Q379.4063,273.5469 380,273.2813 Q380.5938,273 381.2188,272.4219 L381.2188,275.1406 Z " fill="#000000"/><text fill="#000000" font-family="sans-serif" font-size="14" lengthAdjust="spacing" textLength="95" x="398.75" y="274.3467">DijkstraResult</text><line style="stroke:#181818;stroke-width:0.5;" x1="129" x2="731" y1="285.5" y2="285.5"/><rect fill="none" height="6" style="stroke:#C82930;stroke-width:1.0;" width="6" x="136" y="296.1484"/><text fill="#000000" font-family="sans-serif" font-size="14" lengthAdjust="spacing" textLength="235" x="148" y="302.4951">Map&lt;KVertex, Double&gt; distances</text><rect fill="none" height="6" style="stroke:#C82930;stroke-width:1.0;" width="6" x="136" y="312.4453"/><text fill="#000000" font-family="sans-serif" font-size="14" lengthAdjust="spacing" textLength="230" x="148" y="318.792">Map&lt;KVertex, KVertex&gt; previous</text><line style="stroke:#181818;stroke-width:0.5;" x1="129" x2="731" y1="326.0938" y2="326.0938"/><ellipse cx="139" cy="339.7422" fill="#84BE84" rx="3" ry="3" style="stroke:#038048;stroke-width:1.0;"/><text fill="#000000" font-family="sans-serif" font-size="14" lengthAdjust="spacing" textLength="578" x="148" y="343.0889">DijkstraResult(Map&lt;KVertex, Double&gt; distances, Map&lt;KVertex, KVertex&gt; previous)</text></g><!--MD5=[cfc47a6f24abceb849f96e39d6991c92]
class DijkstraAlgorithm--><g id="elem_DijkstraAlgorithm"><rect codeLine="7" fill="#F1F1F1" height="80.5938" id="DijkstraAlgorithm" rx="2.5" ry="2.5" style="stroke:#181818;stroke-width:0.5;" width="815" x="22.5" y="41"/><ellipse cx="367.75" cy="57" fill="#ADD1B2" rx="11" ry="11" style="stroke:#181818;stroke-width:1.0;"/><path d="M370.7188,62.6406 Q370.1406,62.9375 369.5,63.0781 Q368.8594,63.2344 368.1563,63.2344 Q365.6563,63.2344 364.3281,61.5938 Q363.0156,59.9375 363.0156,56.8125 Q363.0156,53.6875 364.3281,52.0313 Q365.6563,50.375 368.1563,50.375 Q368.8594,50.375 369.5,50.5313 Q370.1563,50.6875 370.7188,50.9844 L370.7188,53.7031 Q370.0938,53.125 369.5,52.8594 Q368.9063,52.5781 368.2813,52.5781 Q366.9375,52.5781 366.25,53.6563 Q365.5625,54.7188 365.5625,56.8125 Q365.5625,58.9063 366.25,59.9844 Q366.9375,61.0469 368.2813,61.0469 Q368.9063,61.0469 369.5,60.7813 Q370.0938,60.5 370.7188,59.9219 L370.7188,62.6406 Z " fill="#000000"/><text fill="#000000" font-family="sans-serif" font-size="14" lengthAdjust="spacing" textLength="116" x="388.25" y="61.8467">DijkstraAlgorithm</text><line style="stroke:#181818;stroke-width:0.5;" x1="23.5" x2="836.5" y1="73" y2="73"/><line style="stroke:#181818;stroke-width:0.5;" x1="23.5" x2="836.5" y1="81" y2="81"/><ellipse cx="33.5" cy="94.6484" fill="#84BE84" rx="3" ry="3" style="stroke:#038048;stroke-width:1.0;"/><text fill="#000000" font-family="sans-serif" font-size="14" lengthAdjust="spacing" textLength="789" x="42.5" y="97.9951">DijkstraResult&lt;KVertex&gt; computeShortestPaths(Graph&lt;KEdge, VEdge, KVertex, VVertex&gt; graph, KVertex source)</text><ellipse cx="33.5" cy="110.9453" fill="#84BE84" rx="3" ry="3" style="stroke:#038048;stroke-width:1.0;"/><text fill="#000000" font-family="sans-serif" font-size="14" lengthAdjust="spacing" textLength="676" x="42.5" y="114.292">List&lt;KVertex&gt; getShortestPath(Map&lt;KVertex, KVertex&gt; previous, KVertex source, KVertex target)</text></g><!--MD5=[ac4b838dff37a75df6cac9426a4ec32d]
class distances--><g id="elem_distances"><rect fill="#F1F1F1" height="48" id="distances" rx="2.5" ry="2.5" style="stroke:#181818;stroke-width:0.5;" width="99" x="315.5" y="532.5"/><ellipse cx="330.5" cy="548.5" fill="#ADD1B2" rx="11" ry="11" style="stroke:#181818;stroke-width:1.0;"/><path d="M333.4688,554.1406 Q332.8906,554.4375 332.25,554.5781 Q331.6094,554.7344 330.9063,554.7344 Q328.4063,554.7344 327.0781,553.0938 Q325.7656,551.4375 325.7656,548.3125 Q325.7656,545.1875 327.0781,543.5313 Q328.4063,541.875 330.9063,541.875 Q331.6094,541.875 332.25,542.0313 Q332.9063,542.1875 333.4688,542.4844 L333.4688,545.2031 Q332.8438,544.625 332.25,544.3594 Q331.6563,544.0781 331.0313,544.0781 Q329.6875,544.0781 329,545.1563 Q328.3125,546.2188 328.3125,548.3125 Q328.3125,550.4063 329,551.4844 Q329.6875,552.5469 331.0313,552.5469 Q331.6563,552.5469 332.25,552.2813 Q332.8438,552 333.4688,551.4219 L333.4688,554.1406 Z " fill="#000000"/><text fill="#000000" font-family="sans-serif" font-size="14" lengthAdjust="spacing" textLength="67" x="344.5" y="553.3467">distances</text><line style="stroke:#181818;stroke-width:0.5;" x1="316.5" x2="413.5" y1="564.5" y2="564.5"/><line style="stroke:#181818;stroke-width:0.5;" x1="316.5" x2="413.5" y1="572.5" y2="572.5"/></g><!--MD5=[501820c5024c9db6abfa375a2d1b7ee3]
class previous--><g id="elem_previous"><rect fill="#F1F1F1" height="48" id="previous" rx="2.5" ry="2.5" style="stroke:#181818;stroke-width:0.5;" width="91" x="449.5" y="532.5"/><ellipse cx="464.5" cy="548.5" fill="#ADD1B2" rx="11" ry="11" style="stroke:#181818;stroke-width:1.0;"/><path d="M467.4688,554.1406 Q466.8906,554.4375 466.25,554.5781 Q465.6094,554.7344 464.9063,554.7344 Q462.4063,554.7344 461.0781,553.0938 Q459.7656,551.4375 459.7656,548.3125 Q459.7656,545.1875 461.0781,543.5313 Q462.4063,541.875 464.9063,541.875 Q465.6094,541.875 466.25,542.0313 Q466.9063,542.1875 467.4688,542.4844 L467.4688,545.2031 Q466.8438,544.625 466.25,544.3594 Q465.6563,544.0781 465.0313,544.0781 Q463.6875,544.0781 463,545.1563 Q462.3125,546.2188 462.3125,548.3125 Q462.3125,550.4063 463,551.4844 Q463.6875,552.5469 465.0313,552.5469 Q465.6563,552.5469 466.25,552.2813 Q466.8438,552 467.4688,551.4219 L467.4688,554.1406 Z " fill="#000000"/><text fill="#000000" font-family="sans-serif" font-size="14" lengthAdjust="spacing" textLength="59" x="478.5" y="553.3467">previous</text><line style="stroke:#181818;stroke-width:0.5;" x1="450.5" x2="539.5" y1="564.5" y2="564.5"/><line style="stroke:#181818;stroke-width:0.5;" x1="450.5" x2="539.5" y1="572.5" y2="572.5"/></g><!--MD5=[706e73df52f3df32f52be1ce9adb217e]
class Graph--><g id="elem_Graph"><rect codeLine="16" fill="#F1F1F1" height="227.2656" id="Graph" rx="2.5" ry="2.5" style="stroke:#181818;stroke-width:0.5;" width="566" x="894" y="188.5"/><ellipse cx="1151.75" cy="204.5" fill="#ADD1B2" rx="11" ry="11" style="stroke:#181818;stroke-width:1.0;"/><path d="M1154.7188,210.1406 Q1154.1406,210.4375 1153.5,210.5781 Q1152.8594,210.7344 1152.1563,210.7344 Q1149.6563,210.7344 1148.3281,209.0938 Q1147.0156,207.4375 1147.0156,204.3125 Q1147.0156,201.1875 1148.3281,199.5313 Q1149.6563,197.875 1152.1563,197.875 Q1152.8594,197.875 1153.5,198.0313 Q1154.1563,198.1875 1154.7188,198.4844 L1154.7188,201.2031 Q1154.0938,200.625 1153.5,200.3594 Q1152.9063,200.0781 1152.2813,200.0781 Q1150.9375,200.0781 1150.25,201.1563 Q1149.5625,202.2188 1149.5625,204.3125 Q1149.5625,206.4063 1150.25,207.4844 Q1150.9375,208.5469 1152.2813,208.5469 Q1152.9063,208.5469 1153.5,208.2813 Q1154.0938,208 1154.7188,207.4219 L1154.7188,210.1406 Z " fill="#000000"/><text fill="#000000" font-family="sans-serif" font-size="14" lengthAdjust="spacing" textLength="42" x="1172.25" y="209.3467">Graph</text><line style="stroke:#181818;stroke-width:0.5;" x1="895" x2="1459" y1="220.5" y2="220.5"/><rect fill="none" height="6" style="stroke:#C82930;stroke-width:1.0;" width="6" x="902" y="231.1484"/><text fill="#000000" font-family="sans-serif" font-size="14" lengthAdjust="spacing" textLength="389" x="914" y="237.4951">HashMap&lt;KVertex, Vertex&lt;KVertex, VVertex&gt;&gt; vertices</text><rect fill="none" height="6" style="stroke:#C82930;stroke-width:1.0;" width="6" x="902" y="247.4453"/><text fill="#000000" font-family="sans-serif" font-size="14" lengthAdjust="spacing" textLength="347" x="914" y="253.792">HashMap&lt;KEdge, Edge&lt;KEdge, VEdge&gt;&gt; edges</text><line style="stroke:#181818;stroke-width:0.5;" x1="895" x2="1459" y1="261.0938" y2="261.0938"/><ellipse cx="905" cy="274.7422" fill="#84BE84" rx="3" ry="3" style="stroke:#038048;stroke-width:1.0;"/><text fill="#000000" font-family="sans-serif" font-size="14" lengthAdjust="spacing" textLength="340" x="914" y="278.0889">void addVertex(Vertex&lt;KVertex, VVertex&gt; vertex)</text><ellipse cx="905" cy="291.0391" fill="#84BE84" rx="3" ry="3" style="stroke:#038048;stroke-width:1.0;"/><text fill="#000000" font-family="sans-serif" font-size="14" lengthAdjust="spacing" textLength="540" x="914" y="294.3857">void addEdge(KVertex startKey, KVertex endKey, Edge&lt;KEdge, VEdge&gt; edge)</text><ellipse cx="905" cy="307.3359" fill="#84BE84" rx="3" ry="3" style="stroke:#038048;stroke-width:1.0;"/><text fill="#000000" font-family="sans-serif" font-size="14" lengthAdjust="spacing" textLength="383" x="914" y="310.6826">void addEdge(KEdge key, Edge&lt;KEdge, VEdge&gt; edge)</text><ellipse cx="905" cy="323.6328" fill="#84BE84" rx="3" ry="3" style="stroke:#038048;stroke-width:1.0;"/><text fill="#000000" font-family="sans-serif" font-size="14" lengthAdjust="spacing" textLength="219" x="914" y="326.9795">void removeVertex(KVertex key)</text><ellipse cx="905" cy="339.9297" fill="#84BE84" rx="3" ry="3" style="stroke:#038048;stroke-width:1.0;"/><text fill="#000000" font-family="sans-serif" font-size="14" lengthAdjust="spacing" textLength="360" x="914" y="343.2764">void removeEdge(KVertex startKey, KVertex endKey)</text><ellipse cx="905" cy="356.2266" fill="#84BE84" rx="3" ry="3" style="stroke:#038048;stroke-width:1.0;"/><text fill="#000000" font-family="sans-serif" font-size="14" lengthAdjust="spacing" textLength="344" x="914" y="359.5732">Vertex&lt;KVertex, VVertex&gt; getVertex(KVertex key)</text><ellipse cx="905" cy="372.5234" fill="#84BE84" rx="3" ry="3" style="stroke:#038048;stroke-width:1.0;"/><text fill="#000000" font-family="sans-serif" font-size="14" lengthAdjust="spacing" textLength="461" x="914" y="375.8701">Edge&lt;KEdge, VEdge&gt; getEdge(KVertex startKey, KVertex endKey)</text><ellipse cx="905" cy="388.8203" fill="#84BE84" rx="3" ry="3" style="stroke:#038048;stroke-width:1.0;"/><text fill="#000000" font-family="sans-serif" font-size="14" lengthAdjust="spacing" textLength="108" x="914" y="392.167">String toString()</text><ellipse cx="905" cy="405.1172" fill="#84BE84" rx="3" ry="3" style="stroke:#038048;stroke-width:1.0;"/><text fill="#000000" font-family="sans-serif" font-size="14" lengthAdjust="spacing" textLength="75" x="914" y="408.4639">void clear()</text></g><!--MD5=[c8b153f885034d44a79999642e3ba63d]
class Vertex--><g id="elem_Vertex"><rect codeLine="30" fill="#F1F1F1" height="129.4844" id="Vertex" rx="2.5" ry="2.5" style="stroke:#181818;stroke-width:0.5;" width="154" x="1112" y="492"/><ellipse cx="1162.75" cy="508" fill="#ADD1B2" rx="11" ry="11" style="stroke:#181818;stroke-width:1.0;"/><path d="M1165.7188,513.6406 Q1165.1406,513.9375 1164.5,514.0781 Q1163.8594,514.2344 1163.1563,514.2344 Q1160.6563,514.2344 1159.3281,512.5938 Q1158.0156,510.9375 1158.0156,507.8125 Q1158.0156,504.6875 1159.3281,503.0313 Q1160.6563,501.375 1163.1563,501.375 Q1163.8594,501.375 1164.5,501.5313 Q1165.1563,501.6875 1165.7188,501.9844 L1165.7188,504.7031 Q1165.0938,504.125 1164.5,503.8594 Q1163.9063,503.5781 1163.2813,503.5781 Q1161.9375,503.5781 1161.25,504.6563 Q1160.5625,505.7188 1160.5625,507.8125 Q1160.5625,509.9063 1161.25,510.9844 Q1161.9375,512.0469 1163.2813,512.0469 Q1163.9063,512.0469 1164.5,511.7813 Q1165.0938,511.5 1165.7188,510.9219 L1165.7188,513.6406 Z " fill="#000000"/><text fill="#000000" font-family="sans-serif" font-size="14" lengthAdjust="spacing" textLength="44" x="1183.25" y="512.8467">Vertex</text><line style="stroke:#181818;stroke-width:0.5;" x1="1113" x2="1265" y1="524" y2="524"/><rect fill="none" height="6" style="stroke:#C82930;stroke-width:1.0;" width="6" x="1120" y="534.6484"/><text fill="#000000" font-family="sans-serif" font-size="14" lengthAdjust="spacing" textLength="81" x="1132" y="540.9951">KVertex key</text><rect fill="none" height="6" style="stroke:#C82930;stroke-width:1.0;" width="6" x="1120" y="550.9453"/><text fill="#000000" font-family="sans-serif" font-size="14" lengthAdjust="spacing" textLength="93" x="1132" y="557.292">VVertex value</text><line style="stroke:#181818;stroke-width:0.5;" x1="1113" x2="1265" y1="564.5938" y2="564.5938"/><ellipse cx="1123" cy="578.2422" fill="#84BE84" rx="3" ry="3" style="stroke:#038048;stroke-width:1.0;"/><text fill="#000000" font-family="sans-serif" font-size="14" lengthAdjust="spacing" textLength="115" x="1132" y="581.5889">KVertex getKey()</text><ellipse cx="1123" cy="594.5391" fill="#84BE84" rx="3" ry="3" style="stroke:#038048;stroke-width:1.0;"/><text fill="#000000" font-family="sans-serif" font-size="14" lengthAdjust="spacing" textLength="128" x="1132" y="597.8857">VVertex getValue()</text><ellipse cx="1123" cy="610.8359" fill="#84BE84" rx="3" ry="3" style="stroke:#038048;stroke-width:1.0;"/><text fill="#000000" font-family="sans-serif" font-size="14" lengthAdjust="spacing" textLength="108" x="1132" y="614.1826">String toString()</text></g><!--MD5=[2e2f8c8f62c4eb3bc59a59727cfd81a5]
class Edge--><g id="elem_Edge"><rect codeLine="38" fill="#F1F1F1" height="162.0781" id="Edge" rx="2.5" ry="2.5" style="stroke:#181818;stroke-width:0.5;" width="146" x="1301" y="475.5"/><ellipse cx="1351.75" cy="491.5" fill="#ADD1B2" rx="11" ry="11" style="stroke:#181818;stroke-width:1.0;"/><path d="M1354.7188,497.1406 Q1354.1406,497.4375 1353.5,497.5781 Q1352.8594,497.7344 1352.1563,497.7344 Q1349.6563,497.7344 1348.3281,496.0938 Q1347.0156,494.4375 1347.0156,491.3125 Q1347.0156,488.1875 1348.3281,486.5313 Q1349.6563,484.875 1352.1563,484.875 Q1352.8594,484.875 1353.5,485.0313 Q1354.1563,485.1875 1354.7188,485.4844 L1354.7188,488.2031 Q1354.0938,487.625 1353.5,487.3594 Q1352.9063,487.0781 1352.2813,487.0781 Q1350.9375,487.0781 1350.25,488.1563 Q1349.5625,489.2188 1349.5625,491.3125 Q1349.5625,493.4063 1350.25,494.4844 Q1350.9375,495.5469 1352.2813,495.5469 Q1352.9063,495.5469 1353.5,495.2813 Q1354.0938,495 1354.7188,494.4219 L1354.7188,497.1406 Z " fill="#000000"/><text fill="#000000" font-family="sans-serif" font-size="14" lengthAdjust="spacing" textLength="36" x="1372.25" y="496.3467">Edge</text><line style="stroke:#181818;stroke-width:0.5;" x1="1302" x2="1446" y1="507.5" y2="507.5"/><rect fill="none" height="6" style="stroke:#C82930;stroke-width:1.0;" width="6" x="1309" y="518.1484"/><text fill="#000000" font-family="sans-serif" font-size="14" lengthAdjust="spacing" textLength="73" x="1321" y="524.4951">KEdge key</text><rect fill="none" height="6" style="stroke:#C82930;stroke-width:1.0;" width="6" x="1309" y="534.4453"/><text fill="#000000" font-family="sans-serif" font-size="14" lengthAdjust="spacing" textLength="85" x="1321" y="540.792">VEdge value</text><rect fill="none" height="6" style="stroke:#C82930;stroke-width:1.0;" width="6" x="1309" y="550.7422"/><text fill="#000000" font-family="sans-serif" font-size="14" lengthAdjust="spacing" textLength="96" x="1321" y="557.0889">boolean open</text><line style="stroke:#181818;stroke-width:0.5;" x1="1302" x2="1446" y1="564.3906" y2="564.3906"/><ellipse cx="1312" cy="578.0391" fill="#84BE84" rx="3" ry="3" style="stroke:#038048;stroke-width:1.0;"/><text fill="#000000" font-family="sans-serif" font-size="14" lengthAdjust="spacing" textLength="107" x="1321" y="581.3857">KEdge getKey()</text><ellipse cx="1312" cy="594.3359" fill="#84BE84" rx="3" ry="3" style="stroke:#038048;stroke-width:1.0;"/><text fill="#000000" font-family="sans-serif" font-size="14" lengthAdjust="spacing" textLength="120" x="1321" y="597.6826">VEdge getValue()</text><ellipse cx="1312" cy="610.6328" fill="#84BE84" rx="3" ry="3" style="stroke:#038048;stroke-width:1.0;"/><text fill="#000000" font-family="sans-serif" font-size="14" lengthAdjust="spacing" textLength="119" x="1321" y="613.9795">boolean isOpen()</text><ellipse cx="1312" cy="626.9297" fill="#84BE84" rx="3" ry="3" style="stroke:#038048;stroke-width:1.0;"/><text fill="#000000" font-family="sans-serif" font-size="14" lengthAdjust="spacing" textLength="108" x="1321" y="630.2764">String toString()</text></g><!--MD5=[2ab08077214510159314b6cb056cd52c]
class CityVertex--><g id="elem_CityVertex"><rect codeLine="49" fill="#F1F1F1" height="64.2969" id="CityVertex" rx="2.5" ry="2.5" style="stroke:#181818;stroke-width:0.5;" width="101" x="1395.5" y="49.5"/><ellipse cx="1410.5" cy="65.5" fill="#ADD1B2" rx="11" ry="11" style="stroke:#181818;stroke-width:1.0;"/><path d="M1413.4688,71.1406 Q1412.8906,71.4375 1412.25,71.5781 Q1411.6094,71.7344 1410.9063,71.7344 Q1408.4063,71.7344 1407.0781,70.0938 Q1405.7656,68.4375 1405.7656,65.3125 Q1405.7656,62.1875 1407.0781,60.5313 Q1408.4063,58.875 1410.9063,58.875 Q1411.6094,58.875 1412.25,59.0313 Q1412.9063,59.1875 1413.4688,59.4844 L1413.4688,62.2031 Q1412.8438,61.625 1412.25,61.3594 Q1411.6563,61.0781 1411.0313,61.0781 Q1409.6875,61.0781 1409,62.1563 Q1408.3125,63.2188 1408.3125,65.3125 Q1408.3125,67.4063 1409,68.4844 Q1409.6875,69.5469 1411.0313,69.5469 Q1411.6563,69.5469 1412.25,69.2813 Q1412.8438,69 1413.4688,68.4219 L1413.4688,71.1406 Z " fill="#000000"/><text fill="#000000" font-family="sans-serif" font-size="14" lengthAdjust="spacing" textLength="69" x="1424.5" y="70.3467">CityVertex</text><line style="stroke:#181818;stroke-width:0.5;" x1="1396.5" x2="1495.5" y1="81.5" y2="81.5"/><line style="stroke:#181818;stroke-width:0.5;" x1="1396.5" x2="1495.5" y1="89.5" y2="89.5"/><text fill="#000000" font-family="sans-serif" font-size="14" lengthAdjust="spacing" textLength="50" x="1401.5" y="106.4951">super()</text></g><!--MD5=[d52c6aff78c768c4c42d40b2f81da922]
class RoadEdge--><g id="elem_RoadEdge"><rect codeLine="52" fill="#F1F1F1" height="64.2969" id="RoadEdge" rx="2.5" ry="2.5" style="stroke:#181818;stroke-width:0.5;" width="104" x="1532" y="49.5"/><ellipse cx="1547" cy="65.5" fill="#ADD1B2" rx="11" ry="11" style="stroke:#181818;stroke-width:1.0;"/><path d="M1549.9688,71.1406 Q1549.3906,71.4375 1548.75,71.5781 Q1548.1094,71.7344 1547.4063,71.7344 Q1544.9063,71.7344 1543.5781,70.0938 Q1542.2656,68.4375 1542.2656,65.3125 Q1542.2656,62.1875 1543.5781,60.5313 Q1544.9063,58.875 1547.4063,58.875 Q1548.1094,58.875 1548.75,59.0313 Q1549.4063,59.1875 1549.9688,59.4844 L1549.9688,62.2031 Q1549.3438,61.625 1548.75,61.3594 Q1548.1563,61.0781 1547.5313,61.0781 Q1546.1875,61.0781 1545.5,62.1563 Q1544.8125,63.2188 1544.8125,65.3125 Q1544.8125,67.4063 1545.5,68.4844 Q1546.1875,69.5469 1547.5313,69.5469 Q1548.1563,69.5469 1548.75,69.2813 Q1549.3438,69 1549.9688,68.4219 L1549.9688,71.1406 Z " fill="#000000"/><text fill="#000000" font-family="sans-serif" font-size="14" lengthAdjust="spacing" textLength="72" x="1561" y="70.3467">RoadEdge</text><line style="stroke:#181818;stroke-width:0.5;" x1="1533" x2="1635" y1="81.5" y2="81.5"/><line style="stroke:#181818;stroke-width:0.5;" x1="1533" x2="1635" y1="89.5" y2="89.5"/><text fill="#000000" font-family="sans-serif" font-size="14" lengthAdjust="spacing" textLength="50" x="1538" y="106.4951">super()</text></g><!--MD5=[11b2258ffbf0a403c1a018df3a7a6080]
class TransportGraph--><g id="elem_TransportGraph"><rect codeLine="55" fill="#F1F1F1" height="64.2969" id="TransportGraph" rx="2.5" ry="2.5" style="stroke:#181818;stroke-width:0.5;" width="141" x="1219.5" y="49.5"/><ellipse cx="1234.5" cy="65.5" fill="#ADD1B2" rx="11" ry="11" style="stroke:#181818;stroke-width:1.0;"/><path d="M1237.4688,71.1406 Q1236.8906,71.4375 1236.25,71.5781 Q1235.6094,71.7344 1234.9063,71.7344 Q1232.4063,71.7344 1231.0781,70.0938 Q1229.7656,68.4375 1229.7656,65.3125 Q1229.7656,62.1875 1231.0781,60.5313 Q1232.4063,58.875 1234.9063,58.875 Q1235.6094,58.875 1236.25,59.0313 Q1236.9063,59.1875 1237.4688,59.4844 L1237.4688,62.2031 Q1236.8438,61.625 1236.25,61.3594 Q1235.6563,61.0781 1235.0313,61.0781 Q1233.6875,61.0781 1233,62.1563 Q1232.3125,63.2188 1232.3125,65.3125 Q1232.3125,67.4063 1233,68.4844 Q1233.6875,69.5469 1235.0313,69.5469 Q1235.6563,69.5469 1236.25,69.2813 Q1236.8438,69 1237.4688,68.4219 L1237.4688,71.1406 Z " fill="#000000"/><text fill="#000000" font-family="sans-serif" font-size="14" lengthAdjust="spacing" textLength="109" x="1248.5" y="70.3467">TransportGraph</text><line style="stroke:#181818;stroke-width:0.5;" x1="1220.5" x2="1359.5" y1="81.5" y2="81.5"/><line style="stroke:#181818;stroke-width:0.5;" x1="1220.5" x2="1359.5" y1="89.5" y2="89.5"/><text fill="#000000" font-family="sans-serif" font-size="14" lengthAdjust="spacing" textLength="50" x="1225.5" y="106.4951">super()</text></g><!--MD5=[f19b4e962a0a02df55f236bf33fe7f31]
class LoadFile--><g id="elem_LoadFile"><rect codeLine="60" fill="#F1F1F1" height="64.2969" id="LoadFile" rx="2.5" ry="2.5" style="stroke:#181818;stroke-width:0.5;" width="210" x="1433" y="712.5"/><ellipse cx="1505.75" cy="728.5" fill="#ADD1B2" rx="11" ry="11" style="stroke:#181818;stroke-width:1.0;"/><path d="M1508.7188,734.1406 Q1508.1406,734.4375 1507.5,734.5781 Q1506.8594,734.7344 1506.1563,734.7344 Q1503.6563,734.7344 1502.3281,733.0938 Q1501.0156,731.4375 1501.0156,728.3125 Q1501.0156,725.1875 1502.3281,723.5313 Q1503.6563,721.875 1506.1563,721.875 Q1506.8594,721.875 1507.5,722.0313 Q1508.1563,722.1875 1508.7188,722.4844 L1508.7188,725.2031 Q1508.0938,724.625 1507.5,724.3594 Q1506.9063,724.0781 1506.2813,724.0781 Q1504.9375,724.0781 1504.25,725.1563 Q1503.5625,726.2188 1503.5625,728.3125 Q1503.5625,730.4063 1504.25,731.4844 Q1504.9375,732.5469 1506.2813,732.5469 Q1506.9063,732.5469 1507.5,732.2813 Q1508.0938,732 1508.7188,731.4219 L1508.7188,734.1406 Z " fill="#000000"/><text fill="#000000" font-family="sans-serif" font-size="14" lengthAdjust="spacing" textLength="56" x="1526.25" y="733.3467">LoadFile</text><line style="stroke:#181818;stroke-width:0.5;" x1="1434" x2="1642" y1="744.5" y2="744.5"/><line style="stroke:#181818;stroke-width:0.5;" x1="1434" x2="1642" y1="752.5" y2="752.5"/><ellipse cx="1444" cy="766.1484" fill="#84BE84" rx="3" ry="3" style="stroke:#038048;stroke-width:1.0;"/><text fill="#000000" font-family="sans-serif" font-size="14" lengthAdjust="spacing" textLength="184" x="1453" y="769.4951">loadGraph(String fileName)</text></g><!--MD5=[cff97792714f18170ca11576b686be5d]
class SaveFile--><g id="elem_SaveFile"><rect codeLine="63" fill="#F1F1F1" height="64.2969" id="SaveFile" rx="2.5" ry="2.5" style="stroke:#181818;stroke-width:0.5;" width="307" x="1090.5" y="712.5"/><ellipse cx="1211.75" cy="728.5" fill="#ADD1B2" rx="11" ry="11" style="stroke:#181818;stroke-width:1.0;"/><path d="M1214.7188,734.1406 Q1214.1406,734.4375 1213.5,734.5781 Q1212.8594,734.7344 1212.1563,734.7344 Q1209.6563,734.7344 1208.3281,733.0938 Q1207.0156,731.4375 1207.0156,728.3125 Q1207.0156,725.1875 1208.3281,723.5313 Q1209.6563,721.875 1212.1563,721.875 Q1212.8594,721.875 1213.5,722.0313 Q1214.1563,722.1875 1214.7188,722.4844 L1214.7188,725.2031 Q1214.0938,724.625 1213.5,724.3594 Q1212.9063,724.0781 1212.2813,724.0781 Q1210.9375,724.0781 1210.25,725.1563 Q1209.5625,726.2188 1209.5625,728.3125 Q1209.5625,730.4063 1210.25,731.4844 Q1210.9375,732.5469 1212.2813,732.5469 Q1212.9063,732.5469 1213.5,732.2813 Q1214.0938,732 1214.7188,731.4219 L1214.7188,734.1406 Z " fill="#000000"/><text fill="#000000" font-family="sans-serif" font-size="14" lengthAdjust="spacing" textLength="56" x="1232.25" y="733.3467">SaveFile</text><line style="stroke:#181818;stroke-width:0.5;" x1="1091.5" x2="1396.5" y1="744.5" y2="744.5"/><line style="stroke:#181818;stroke-width:0.5;" x1="1091.5" x2="1396.5" y1="752.5" y2="752.5"/><ellipse cx="1101.5" cy="766.1484" fill="#84BE84" rx="3" ry="3" style="stroke:#038048;stroke-width:1.0;"/><text fill="#000000" font-family="sans-serif" font-size="14" lengthAdjust="spacing" textLength="281" x="1110.5" y="769.4951">saveGraph(Graph graph, String fileName)</text></g><!--MD5=[cc3de0a176daa3c4ec875deafdf5ddd1]
class Serializable--><g id="elem_Serializable"><rect fill="#F1F1F1" height="48" id="Serializable" rx="2.5" ry="2.5" style="stroke:#181818;stroke-width:0.5;" width="109" x="946.5" y="720.5"/><ellipse cx="961.5" cy="736.5" fill="#ADD1B2" rx="11" ry="11" style="stroke:#181818;stroke-width:1.0;"/><path d="M964.4688,742.1406 Q963.8906,742.4375 963.25,742.5781 Q962.6094,742.7344 961.9063,742.7344 Q959.4063,742.7344 958.0781,741.0938 Q956.7656,739.4375 956.7656,736.3125 Q956.7656,733.1875 958.0781,731.5313 Q959.4063,729.875 961.9063,729.875 Q962.6094,729.875 963.25,730.0313 Q963.9063,730.1875 964.4688,730.4844 L964.4688,733.2031 Q963.8438,732.625 963.25,732.3594 Q962.6563,732.0781 962.0313,732.0781 Q960.6875,732.0781 960,733.1563 Q959.3125,734.2188 959.3125,736.3125 Q959.3125,738.4063 960,739.4844 Q960.6875,740.5469 962.0313,740.5469 Q962.6563,740.5469 963.25,740.2813 Q963.8438,740 964.4688,739.4219 L964.4688,742.1406 Z " fill="#000000"/><text fill="#000000" font-family="sans-serif" font-size="14" lengthAdjust="spacing" textLength="77" x="975.5" y="741.3467">Serializable</text><line style="stroke:#181818;stroke-width:0.5;" x1="947.5" x2="1054.5" y1="752.5" y2="752.5"/><line style="stroke:#181818;stroke-width:0.5;" x1="947.5" x2="1054.5" y1="760.5" y2="760.5"/></g><!--MD5=[f0fa687c4d208f5b97b1a0913ae4310d]
reverse link DijkstraResult to distances--><g id="link_DijkstraResult_distances"><path codeLine="11" d="M414.38,363.69 C400.44,417.84 380.77,494.24 371,532.21 " fill="none" id="DijkstraResult-backto-distances" style="stroke:#181818;stroke-width:1.0;"/><polygon fill="#181818" points="417.7,350.79,412.3346,355.6079,414.7182,362.4136,420.0837,357.5957,417.7,350.79" style="stroke:#181818;stroke-width:1.0;"/></g><!--MD5=[54884e744f6a2917b6f930f18b39c558]
reverse link DijkstraResult to previous--><g id="link_DijkstraResult_previous"><path codeLine="12" d="M445.62,363.69 C459.56,417.84 479.23,494.24 489,532.21 " fill="none" id="DijkstraResult-backto-previous" style="stroke:#181818;stroke-width:1.0;"/><polygon fill="#181818" points="442.3,350.79,439.9163,357.5957,445.2818,362.4136,447.6654,355.6079,442.3,350.79" style="stroke:#181818;stroke-width:1.0;"/></g><!--MD5=[260ad58947aec9f7fdb36167993ad091]
reverse link Edge to Serializable--><g id="link_Edge_Serializable"><path codeLine="68" d="M1302.16,650.56 C1296.39,654.75 1290.33,658.46 1284,661.5 C1242.11,681.63 1117.59,650.9 1075,669.5 C1050.53,680.19 1029.76,703 1016.51,720.49 " fill="none" id="Edge-backto-Serializable" style="stroke:#181818;stroke-width:1.0;stroke-dasharray:7.0,7.0;"/><polygon fill="none" points="1297.8,645.08,1317.64,637.64,1306.76,655.83,1297.8,645.08" style="stroke:#181818;stroke-width:1.0;"/></g><!--MD5=[3b12f5032f0646f462d53261b361e933]
reverse link Vertex to Serializable--><g id="link_Vertex_Serializable"><path codeLine="69" d="M1109.55,635.37 C1097.95,646.8 1086.15,658.44 1075,669.5 C1057.84,686.51 1038.53,705.82 1023.95,720.45 " fill="none" id="Vertex-backto-Serializable" style="stroke:#181818;stroke-width:1.0;stroke-dasharray:7.0,7.0;"/><polygon fill="none" points="1104.93,630.11,1124.09,621.07,1114.74,640.09,1104.93,630.11" style="stroke:#181818;stroke-width:1.0;"/></g><!--MD5=[04ab1a7d90dd1c8a402bbdfdc20fd9e8]
link Edge to SaveFile--><g id="link_Edge_SaveFile"><path codeLine="70" d="M1317.93,637.73 C1300.73,662.33 1282.69,688.15 1268.73,708.11 " fill="none" id="Edge-to-SaveFile" style="stroke:#181818;stroke-width:1.0;"/><polygon fill="#181818" points="1265.82,712.28,1274.2593,707.2027,1268.6883,708.1845,1267.7065,702.6135,1265.82,712.28" style="stroke:#181818;stroke-width:1.0;"/></g><!--MD5=[c69c32ba2162a82beb7f418ca8e34e5b]
link Edge to LoadFile--><g id="link_Edge_LoadFile"><path codeLine="71" d="M1444.74,637.73 C1466.52,662.43 1489.38,688.36 1507.02,708.36 " fill="none" id="Edge-to-LoadFile" style="stroke:#181818;stroke-width:1.0;"/><polygon fill="#181818" points="1510.48,712.28,1507.5283,702.8839,1507.1733,708.5296,1501.5276,708.1746,1510.48,712.28" style="stroke:#181818;stroke-width:1.0;"/></g><!--MD5=[dc3e0078d627f3c117f74b189794c65a]
link Vertex to SaveFile--><g id="link_Vertex_SaveFile"><path codeLine="72" d="M1207.85,621.25 C1216.36,650.02 1226.09,682.94 1233.32,707.37 " fill="none" id="Vertex-to-SaveFile" style="stroke:#181818;stroke-width:1.0;"/><polygon fill="#181818" points="1234.82,712.45,1236.1132,702.6864,1233.4069,707.6539,1228.4394,704.9475,1234.82,712.45" style="stroke:#181818;stroke-width:1.0;"/></g><!--MD5=[5ff8a606bea972dd2362544adec9f438]
link Vertex to LoadFile--><g id="link_Vertex_LoadFile"><path codeLine="73" d="M1232.95,621.09 C1247.29,637.03 1264.58,652.22 1284,661.5 C1310.31,674.08 1387.15,660.84 1415,669.5 C1442.89,678.17 1471.02,694.41 1493.33,709.47 " fill="none" id="Vertex-to-LoadFile" style="stroke:#181818;stroke-width:1.0;"/><polygon fill="#181818" points="1497.71,712.46,1492.5462,704.0734,1493.5852,709.634,1488.0246,710.6731,1497.71,712.46" style="stroke:#181818;stroke-width:1.0;"/></g><!--MD5=[16220c49d741f8955299156564743ffd]
reverse link Graph to Vertex--><g id="link_Graph_Vertex"><path codeLine="74" d="M1182.98,428.82 C1184.02,450.71 1185.06,472.62 1185.98,491.91 " fill="none" id="Graph-backto-Vertex" style="stroke:#181818;stroke-width:1.0;"/><polygon fill="#181818" points="1182.35,415.59,1178.638,421.7723,1182.917,427.5766,1186.629,421.3943,1182.35,415.59" style="stroke:#181818;stroke-width:1.0;"/><text fill="#000000" font-family="sans-serif" font-size="13" lengthAdjust="spacing" textLength="8" x="1174.4407" y="435.7882">1</text><text fill="#000000" font-family="sans-serif" font-size="13" lengthAdjust="spacing" textLength="36" x="1147.6809" y="481.0728">many</text></g><!--MD5=[0d0508bdbd3a02383af3158b3f4009c2]
reverse link Graph to Edge--><g id="link_Graph_Edge"><path codeLine="75" d="M1272.96,425.99 C1286.02,442.74 1299.15,459.56 1311.41,475.28 " fill="none" id="Graph-backto-Edge" style="stroke:#181818;stroke-width:1.0;"/><polygon fill="#181818" points="1264.84,415.59,1265.3759,422.7812,1272.2201,425.0523,1271.6841,417.8611,1264.84,415.59" style="stroke:#181818;stroke-width:1.0;"/><text fill="#000000" font-family="sans-serif" font-size="13" lengthAdjust="spacing" textLength="8" x="1262.473" y="435.7882">1</text><text fill="#000000" font-family="sans-serif" font-size="13" lengthAdjust="spacing" textLength="36" x="1268.2325" y="464.4477">many</text></g><!--MD5=[7f52032109aafcbc61a308ec3a59dcd6]
link DijkstraAlgorithm to Graph--><g id="link_DijkstraAlgorithm_Graph"><path codeLine="76" d="M762.29,122.03 C793.57,128.69 824.57,136.46 854,145.5 C889.58,156.43 926.17,170.75 961.36,186.26 " fill="none" id="DijkstraAlgorithm-to-Graph" style="stroke:#181818;stroke-width:1.0;stroke-dasharray:7.0,7.0;"/><polygon fill="#181818" points="966.09,188.36,959.4669,181.0706,961.5145,186.3439,956.2412,188.3915,966.09,188.36" style="stroke:#181818;stroke-width:1.0;"/></g><!--MD5=[ec9925c59d3b0fff96b39a46769465a9]
link DijkstraAlgorithm to DijkstraResult--><g id="link_DijkstraAlgorithm_DijkstraResult"><path codeLine="77" d="M430,122.07 C430,157.38 430,209.35 430,248.2 " fill="none" id="DijkstraAlgorithm-to-DijkstraResult" style="stroke:#181818;stroke-width:1.0;stroke-dasharray:7.0,7.0;"/><polygon fill="#181818" points="430,253.35,434,244.35,430,248.35,426,244.35,430,253.35" style="stroke:#181818;stroke-width:1.0;"/></g><!--MD5=[e869535364b80b9a4fbabfddcd83ea35]
reverse link CityVertex to Vertex--><g id="link_CityVertex_Vertex"><path codeLine="78" d="M1473.78,132 C1475.47,136.47 1476.92,141 1478,145.5 C1505.94,262.2 1549.22,318.92 1478,415.5 C1424.43,488.14 1363.21,432.24 1284,475.5 C1275.3,480.25 1266.65,485.88 1258.33,491.92 " fill="none" id="CityVertex-backto-Vertex" style="stroke:#181818;stroke-width:1.0;"/><polygon fill="none" points="1467.38,134.85,1465.5,113.75,1480.14,129.07,1467.38,134.85" style="stroke:#181818;stroke-width:1.0;"/></g><!--MD5=[09058d2b2fd6a26c9b352a5fbafa729a]
reverse link RoadEdge to Edge--><g id="link_RoadEdge_Edge"><path codeLine="79" d="M1588.03,133.92 C1591.06,202.51 1588.15,325.68 1539,415.5 C1517.63,454.55 1480.69,487.45 1447.17,511.52 " fill="none" id="RoadEdge-backto-Edge" style="stroke:#181818;stroke-width:1.0;"/><polygon fill="none" points="1581.03,134.05,1586.89,113.69,1595,133.26,1581.03,134.05" style="stroke:#181818;stroke-width:1.0;"/></g><!--MD5=[d543595e63b6514b35bdfdad991c544c]
reverse link TransportGraph to Graph--><g id="link_TransportGraph_Graph"><path codeLine="80" d="M1264.58,131.64 C1255.8,148.63 1245.56,168.43 1235.24,188.38 " fill="none" id="TransportGraph-backto-Graph" style="stroke:#181818;stroke-width:1.0;"/><polygon fill="none" points="1258.4,128.36,1273.81,113.81,1270.84,134.79,1258.4,128.36" style="stroke:#181818;stroke-width:1.0;"/></g><!--MD5=[6cf67d091979dd1332af9f9f087c2a87]
@startuml
package Algorithm {
    class DijkstraResult {
        - Map<KVertex, Double> distances
        - Map<KVertex, KVertex> previous
        + DijkstraResult(Map<KVertex, Double> distances, Map<KVertex, KVertex> previous)
    }
   class DijkstraAlgorithm {
    + DijkstraResult<KVertex> computeShortestPaths(Graph<KEdge, VEdge, KVertex, VVertex> graph, KVertex source)
    + List<KVertex> getShortestPath(Map<KVertex, KVertex> previous, KVertex source, KVertex target)
}
    DijkstraResult *- - distances
    DijkstraResult *- - previous
}

package DataStructures {
    class Graph {
        - HashMap<KVertex, Vertex<KVertex, VVertex>> vertices
        - HashMap<KEdge, Edge<KEdge, VEdge>> edges
        + void addVertex(Vertex<KVertex, VVertex> vertex)
        + void addEdge(KVertex startKey, KVertex endKey, Edge<KEdge, VEdge> edge)
        + void addEdge(KEdge key, Edge<KEdge, VEdge> edge)
        + void removeVertex(KVertex key)
        + void removeEdge(KVertex startKey, KVertex endKey)
        + Vertex<KVertex, VVertex> getVertex(KVertex key)
        + Edge<KEdge, VEdge> getEdge(KVertex startKey, KVertex endKey)
        + String toString()
        + void clear()
    }

    class Vertex {
        - KVertex key
        - VVertex value
        + KVertex getKey()
        + VVertex getValue()
        + String toString()
    }

    class Edge {
        - KEdge key
        - VEdge value
        - boolean open
        + KEdge getKey()
        + VEdge getValue()
        + boolean isOpen()
        + String toString()
    }
}
package Implementation {
  class CityVertex {
    super()
  }
  class RoadEdge {
    super()
    }
  class TransportGraph {
    super()
    }
  }
package Serialization {
  class LoadFile {
    + loadGraph(String fileName)
    }
  class SaveFile {
    + saveGraph(Graph graph, String fileName)
    }
  }

Edge <|.. Serializable
Vertex <|.. Serializable
Edge - -> SaveFile
Edge - -> LoadFile 
Vertex - -> SaveFile
Vertex - -> LoadFile
Graph "1" *- - "many" Vertex
Graph "1" *- - "many" Edge
DijkstraAlgorithm ..> Graph
DijkstraAlgorithm ..> DijkstraResult
CityVertex <|- - Vertex
RoadEdge <|- - Edge
TransportGraph <|- - Graph
@enduml

PlantUML version 1.2022.7(Mon Aug 22 17:01:30 UTC 2022)
(GPL source distribution)
Java Runtime: OpenJDK Runtime Environment
JVM: OpenJDK 64-Bit Server VM
Default Encoding: UTF-8
Language: en
Country: null
--></g></svg>
